<?xml version="1.0" encoding="utf-8"?>
<!-- Generator: Adobe Illustrator 22.0.1, SVG Export Plug-In . SVG Version: 6.00 Build 0)  -->
<svg version="1.1" id="Layer_1" xmlns="http://www.w3.org/2000/svg" xmlns:xlink="http://www.w3.org/1999/xlink" x="0px" y="0px"
	 viewBox="0 0 65.7 89.3" style="enable-background:new 0 0 65.7 89.3;" xml:space="preserve">
<style type="text/css">
	.st0{fill:#FFFFFF;}
</style>
<g>
	<path class="st0" d="M31.6,10.5c-10.3,0-18.7,8.4-18.7,18.7s8.4,18.7,18.7,18.7s18.7-8.4,18.7-18.7C50.3,18.9,41.9,10.5,31.6,10.5z
		 M29,39.1l-8.8-8.8l3.7-3.7l5.1,5.1l12.5-12.5l3.7,3.7L29,39.1z"/>
	<path class="st0" d="M57.5,25.7c-0.6-5.7,2-7.3-0.1-11.6c-2.1-4.3-5.9-2.7-10-5.8c-4.1-3.1-2.8-6.8-8.2-8.1
		c-5.5-1.2-5.6,2.2-11.2,3S21,0.5,16.5,3.4s-1.5,4.3-5.8,10S4.1,16,2.6,21.6c-1.5,5.6,2.6,5.7,3,11.2c0.4,5.5-2.9,6.3,0.1,11.5
		c3,5.3,5.5,1.8,10,5.8c4.5,4,1,6,8.2,8.1c7.2,2.1,5.2-1.9,11.2-3c6-1.1,6.2,3.1,11.6-0.1c5.3-3.2,2.6-5.7,5.8-10
		c3.1-4.3,6.5-2.3,8.1-8.2C62.1,30.9,58.1,31.4,57.5,25.7z M26.1,50C14.6,47,7.7,35.2,10.8,23.7c3-11.5,14.8-18.4,26.3-15.3
		c11.5,3,18.4,14.8,15.3,26.3C49.4,46.2,37.6,53.1,26.1,50z"/>
	<g>
		<path class="st0" d="M9.8,58.8L0,80.5l14.4-6.8l4.6,15.4l10-22.8C21.6,65.3,16.2,63.7,9.8,58.8z"/>
		<path class="st0" d="M55.8,57.8c-6.3,4.8-11.5,7-19.3,8l10.1,23.3l4.6-15.4l14.4,6.8L55.8,57.8z"/>
	</g>
</g>
</svg>
