<?xml version="1.0" encoding="utf-8"?>
<!-- Generator: Adobe Illustrator 20.1.0, SVG Export Plug-In . SVG Version: 6.00 Build 0)  -->
<svg version="1.1" id="Layer_1" xmlns="http://www.w3.org/2000/svg" xmlns:xlink="http://www.w3.org/1999/xlink" x="0px" y="0px"
	 viewBox="0 0 300 145" style="enable-background:new 0 0 300 145;" xml:space="preserve">
<g>
	<path style="fill:#FFED6F;" d="M294,145H6c-3.3,0-6-2.7-6-6V6c0-3.3,2.7-6,6-6h288c3.3,0,6,2.7,6,6v133
		C300,142.3,297.3,145,294,145z"/>
	<g>
		<g>
			<path style="fill:#404040;" d="M56.5,33.3c9.8,0,14.2,4.9,12.4,13.9c-1.1,4.9-4,8.3-7.9,10.5c3.9,2,5.9,5.7,4.7,11.5
				C63.5,79,56.5,83.6,46,83.6H24.5l10.6-50.3H56.5z M45.6,74.3c3.7,0,6-1.6,6.9-5.7c0.9-4.2-0.8-5.7-4.4-5.7h-5.9l-2.5,11.5H45.6z
				 M49.8,53.5c3,0,5.1-2.1,5.9-5.4c0.8-3.6-0.4-5.4-3.6-5.4h-5.6l-2.3,10.8H49.8z"/>
			<path style="fill:#404040;" d="M82.7,68.5c-0.7,4.4,1.7,5.6,5.3,5.6c4,0,7.2-1.6,7.2-1.6c1.5,1.5,2.6,5.2,2.1,8.3
				c0,0-4.2,3.5-12.9,3.5c-11.8,0-16.6-7-13.7-20.4c2.8-13,10-18.2,20.4-18.2c8.9,0,14.3,4.9,12.2,15c-1.1,4.8-2.4,7.9-2.4,7.9H82.7
				V68.5z M89.8,54.5c-2.2,0-4.2,1.3-5.8,6.9h7.7c0.2-0.7,0.3-1.4,0.4-2.1C92.8,56.5,92.2,54.5,89.8,54.5z"/>
			<path style="fill:#404040;" d="M135.1,83.1c0,0-2.3,0.5-6.5,0.5c-4.2,0-6.2-0.5-6.2-0.5l5.1-24.3c0.4-2.2-0.3-3.5-2.6-3.5
				c-1.2,0-2.4,0.4-3.8,1.3l-5.5,26.3c0,0-2.4,0.5-6.4,0.5c-4.1,0-6.2-0.5-6.2-0.5l10.9-51.2c0,0,2.3-0.5,6.4-0.5
				c4,0,6.2,0.5,6.2,0.5l-3.7,17.1c2.9-2.2,6.3-3.3,9.8-3.3c7.1,0,9.4,5,7.9,11.8L135.1,83.1z"/>
			<path style="fill:#404040;" d="M148.5,47c0,0,2.3-0.5,6.4-0.5c4.1,0,6.3,0.5,6.3,0.5L156,71.4c-0.4,2.1,0.3,3.4,2.6,3.4
				c1.2,0,2.7-0.7,4-2.1l5.5-25.7c0,0,2.3-0.5,6.3-0.5c4.1,0,6.3,0.5,6.3,0.5L173,83.1c0,0-2.3,0.5-6.5,0.5c-4,0-5.5-0.5-5.5-0.5
				v-2.8c-2.9,2.8-6.1,4-9.7,4c-7.1,0-9.7-5-8.1-12.2L148.5,47z"/>
			<path style="fill:#404040;" d="M211.2,83.1c0,0-2.3,0.5-6.5,0.5c-4.2,0-6.2-0.5-6.2-0.5l5.1-24.3c0.4-2.2-0.3-3.5-2.6-3.5
				c-1.2,0-2.5,0.5-3.8,1.4l-5.5,26.3c0,0-2.4,0.5-6.4,0.5c-4.1,0-6.2-0.5-6.2-0.5l7.7-36.1c0,0,2.3-0.5,6.4-0.5
				c4,0,5.5,0.5,5.5,0.5v2.6c2.9-2.2,6.4-3.9,10-3.9c7.1,0,9.7,4.1,8,11.5L211.2,83.1z"/>
			<path style="fill:#404040;" d="M229.9,83.1c0,0-2.4,0.5-6.5,0.5c-4.1,0-6.2-0.5-6.2-0.5l7.7-36.1c0,0,2.3-0.5,6.4-0.5
				c4,0,6.3,0.5,6.3,0.5L229.9,83.1z"/>
			<path style="fill:#404040;" d="M268.3,83.1c0,0-2.3,0.5-6.5,0.5s-6.2-0.5-6.2-0.5l5.1-24.3c0.4-2.2-0.3-3.5-2.6-3.5
				c-1.2,0-2.5,0.5-3.8,1.4l-5.5,26.3c0,0-2.4,0.5-6.4,0.5c-4.1,0-6.2-0.5-6.2-0.5l7.7-36.1c0,0,2.3-0.5,6.4-0.5
				c4,0,5.5,0.5,5.5,0.5v2.6c2.9-2.2,6.4-3.9,10-3.9c7.1,0,9.7,4.1,8,11.5L268.3,83.1z"/>
		</g>

			<ellipse transform="matrix(0.1533 -0.9882 0.9882 0.1533 160.8943 262.1638)" style="fill:#404040;" cx="233.4" cy="37.2" rx="6.4" ry="5.2"/>
		<g>
			<path style="fill:#404040;" d="M63.4,94.2c2.7,0,4,0.8,4,0.8c-0.1,0.6-0.4,1-0.9,1.4c0,0-1.3-0.6-3.2-0.6c-3.1,0-5.5,1.7-6.8,7.5
				c-1.3,5.9,0.5,7.4,3.6,7.4c2.2,0,3.8-0.6,3.8-0.6c0.3,0.3,0.4,0.9,0.3,1.4c0,0-1.7,0.8-4.6,0.8c-4.6,0-6.2-3-5-9.1
				C55.9,97.3,58.9,94.2,63.4,94.2z"/>
			<path style="fill:#404040;" d="M76.5,94.2c4.2,0,6.1,3.1,4.8,9.4c-1.3,6.3-4.3,8.7-8.5,8.7c-4.2,0-6.1-3-4.8-9.4
				C69.3,96.6,72.3,94.2,76.5,94.2z M76.2,95.7c-2.9,0-5.2,1.9-6.5,7.5c-1.2,5.7,0.3,7.5,3.2,7.5c2.9,0,5.2-1.9,6.4-7.5
				C80.7,97.6,79.2,95.7,76.2,95.7z"/>
			<path style="fill:#404040;" d="M89.2,99.4c-0.5-1.5-0.9-2.8-0.9-2.8h-0.1c0,0-0.2,1.4-0.7,3.8l-2.4,11.4c0,0-0.3,0.1-0.9,0.1
				c-0.6,0-0.8-0.1-0.8-0.1l3.7-17.3c0,0,0.4-0.1,1.1-0.1c0.7,0,1.1,0.1,1.1,0.1l4.4,12.3c0.5,1.4,0.9,2.9,0.9,2.9h0.1
				c0,0,0.2-1.7,0.6-3.7l2.5-11.5c0,0,0.3-0.1,0.9-0.1c0.6,0,0.8,0.1,0.8,0.1l-3.7,17.3c0,0-0.3,0.1-1.1,0.1c-0.7,0-1.1-0.1-1.1-0.1
				L89.2,99.4z"/>
			<path style="fill:#404040;" d="M109.3,94.2c2.8,0,4.5,0.7,4.5,0.7c-0.1,0.5-0.4,1.1-0.8,1.4c0,0-1.6-0.5-3.8-0.5
				c-2.9,0-4.5,1.2-4.9,3.2c-0.5,2.2,1.4,2.8,3.7,3.5c2.2,0.7,4.5,2,3.8,5.3c-0.7,3.1-3.1,4.6-7,4.6c-3.1,0-4.9-1-4.9-1
				c0.1-0.5,0.4-1.1,0.8-1.4c0,0,2.1,0.8,4.4,0.8c2.8,0,4.5-1.1,5-3.3c0.4-2.1-1.1-2.9-2.9-3.4c-2.4-0.8-5.3-1.7-4.5-5.3
				C103.2,95.7,105.5,94.2,109.3,94.2z"/>
			<path style="fill:#404040;" d="M128.2,94.4c0,0,0.1,0.3,0,0.8c-0.1,0.5-0.3,0.8-0.3,0.8H123l-3.4,15.9c0,0-0.3,0.1-0.9,0.1
				c-0.6,0-0.9-0.1-0.9-0.1l3.4-15.9h-4.9c0,0-0.1-0.3,0-0.8c0.1-0.5,0.3-0.8,0.3-0.8H128.2z"/>
			<path style="fill:#404040;" d="M137.4,94.4c3.1,0,4.6,2.3,4,5.3c-0.5,2.5-2.2,4-4.5,4.5l2.6,7.6c0,0-0.4,0.1-1.1,0.1
				c-0.7,0-0.9-0.1-0.9-0.1l-2.4-7.4H131l-1.6,7.4c0,0-0.3,0.1-0.9,0.1c-0.7,0-0.9-0.1-0.9-0.1l3.7-17.5H137.4z M139.5,99.4
				c0.5-2.2-0.5-3.5-2.6-3.5h-4.1l-1.5,7h4.1C137.5,102.9,139.1,101.6,139.5,99.4z"/>
			<path style="fill:#404040;" d="M155.9,106.3c-0.8,3.8-3.4,6-7,6c-3.6,0-5.7-2.2-4.9-6l2.5-11.7c0,0,0.3-0.1,0.9-0.1
				c0.6,0,0.9,0.1,0.9,0.1l-2.6,12c-0.6,2.6,0.6,4.2,3.3,4.2c2.6,0,4.5-1.5,5.1-4.2l2.6-12c0,0,0.3-0.1,0.9-0.1
				c0.6,0,0.9,0.1,0.9,0.1L155.9,106.3z"/>
			<path style="fill:#404040;" d="M169.2,94.2c2.7,0,4,0.8,4,0.8c-0.1,0.6-0.4,1-0.9,1.4c0,0-1.3-0.6-3.2-0.6
				c-3.1,0-5.5,1.7-6.8,7.5c-1.3,5.9,0.5,7.4,3.6,7.4c2.2,0,3.8-0.6,3.8-0.6c0.3,0.3,0.4,0.9,0.3,1.4c0,0-1.7,0.8-4.6,0.8
				c-4.6,0-6.2-3-5-9.1C161.6,97.3,164.6,94.2,169.2,94.2z"/>
			<path style="fill:#404040;" d="M186.6,94.4c0,0,0.1,0.3,0,0.8c-0.1,0.5-0.3,0.8-0.3,0.8h-4.8l-3.4,15.9c0,0-0.3,0.1-0.9,0.1
				c-0.6,0-0.9-0.1-0.9-0.1l3.4-15.9h-4.9c0,0-0.1-0.3,0-0.8c0.1-0.5,0.3-0.8,0.3-0.8H186.6z"/>
			<path style="fill:#404040;" d="M189.8,94.6c0,0,0.3-0.1,0.9-0.1c0.6,0,0.9,0.1,0.9,0.1l-3.7,17.3c0,0-0.3,0.1-0.9,0.1
				c-0.6,0-0.9-0.1-0.9-0.1L189.8,94.6z"/>
			<path style="fill:#404040;" d="M202.3,94.2c4.2,0,6.1,3.1,4.8,9.4c-1.3,6.3-4.3,8.7-8.5,8.7c-4.2,0-6.1-3-4.8-9.4
				C195.1,96.6,198.1,94.2,202.3,94.2z M202.1,95.7c-2.9,0-5.2,1.9-6.5,7.5c-1.2,5.7,0.3,7.5,3.2,7.5c2.9,0,5.2-1.9,6.4-7.5
				C206.5,97.6,205,95.7,202.1,95.7z"/>
			<path style="fill:#404040;" d="M215.1,99.4c-0.5-1.5-0.9-2.8-0.9-2.8h-0.1c0,0-0.2,1.4-0.7,3.8l-2.4,11.4c0,0-0.3,0.1-0.9,0.1
				c-0.6,0-0.8-0.1-0.8-0.1l3.7-17.3c0,0,0.4-0.1,1.1-0.1c0.7,0,1.1,0.1,1.1,0.1l4.4,12.3c0.5,1.4,0.9,2.9,0.9,2.9h0.1
				c0,0,0.2-1.7,0.6-3.7l2.5-11.5c0,0,0.3-0.1,0.9-0.1c0.6,0,0.8,0.1,0.8,0.1l-3.7,17.3c0,0-0.3,0.1-1.1,0.1c-0.7,0-1.1-0.1-1.1-0.1
				L215.1,99.4z"/>
			<path style="fill:#404040;" d="M236.2,94.6c0,0,0.3-0.1,0.9-0.1c0.6,0,0.9,0.1,0.9,0.1l-3.7,17.3c0,0-0.3,0.1-0.9,0.1
				c-0.6,0-0.9-0.1-0.9-0.1L236.2,94.6z"/>
			<path style="fill:#404040;" d="M248.1,111.9c0,0-0.3,0.1-0.9,0.1c-0.6,0-0.9-0.1-0.9-0.1l1.9-9c0.4-1.7-0.3-2.5-2.1-2.5
				c-1.3,0-2.9,0.8-3.9,2.2l-2,9.3c0,0-0.3,0.1-0.9,0.1c-0.6,0-0.9-0.1-0.9-0.1l2.7-12.6c0,0,0.3-0.1,0.9-0.1c0.6,0,0.9,0.1,0.9,0.1
				l-0.3,1.5c1.2-1.2,2.6-1.9,4.2-1.9c2.4,0,3.7,1.5,3.2,4L248.1,111.9z"/>
			<path style="fill:#404040;" d="M254.5,105.6c-0.8,3.5,0.1,5.1,2.7,5.1c1.2,0,2-0.2,2.5-0.5c0.3,0.3,0.5,0.8,0.4,1.3
				c-0.7,0.3-1.5,0.7-3.5,0.7c-3.5,0-4.8-2.7-3.9-7.1c0.9-4.4,3.2-6.3,6.6-6.3c2.1,0,3,0.6,3,0.6c-0.1,0.5-0.4,1-0.8,1.3
				c0,0-0.8-0.4-2.2-0.4C256.8,100.4,255.3,102.1,254.5,105.6z"/>
			<path style="fill:#404040;" d="M264.7,111.9c0,0-0.4,0.1-1,0.1c-0.7,0-1-0.1-1-0.1l0.4-1.8c0,0,0.3-0.1,1-0.1c0.7,0,1,0.1,1,0.1
				L264.7,111.9z"/>
		</g>
	</g>
</g>
</svg>
