<?xml version="1.0" encoding="utf-8"?>
<!-- Generator: Adobe Illustrator 20.0.0, SVG Export Plug-In . SVG Version: 6.00 Build 0)  -->
<svg version="1.1" xmlns="http://www.w3.org/2000/svg" xmlns:xlink="http://www.w3.org/1999/xlink" x="0px" y="0px"
	 viewBox="0 0 230 74" style="enable-background:new 0 0 230 74;" xml:space="preserve">
<style type="text/css">
	.st0{fill:#FFFFFF;}
</style>
<g id="Layer_2">
	<g id="PQ8JdE_1_">
		
			<image style="overflow:visible;" width="1920" height="897" id="PQ8JdE" xlink:href="F3B9B282F89C9212.jpg"  transform="matrix(0.6384 0 0 0.6384 429.0007 -80.279)">
		</image>
	</g>
</g>
<g id="Layer_1">
	<g>
		<g>
			<path class="st0" d="M791.3,48.2c9,0,13.2,4.5,11.5,12.8c-1,4.5-3.7,7.7-7.3,9.7c3.6,1.8,5.4,5.3,4.3,10.6
				c-1.9,9.1-8.4,13.3-18,13.3h-20l9.9-46.4H791.3z M781.2,86c3.4,0,5.5-1.5,6.4-5.3c0.8-3.9-0.7-5.3-4.1-5.3H778L775.7,86H781.2z
				 M785.1,66.7c2.8,0,4.8-1.9,5.4-5c0.7-3.3-0.5-5-3.3-5H782l-2.1,10H785.1z"/>
			<path class="st0" d="M815.5,80.7c-0.6,4.1,1.6,5.2,4.9,5.2c3.7,0,6.6-1.5,6.6-1.5c1.4,1.4,2.4,4.8,1.9,7.7c0,0-3.9,3.2-12,3.2
				c-11,0-15.3-6.5-12.7-18.8c2.6-12,9.2-16.8,18.9-16.8c8.2,0,13.2,4.5,11.3,13.8c-1,4.4-2.2,7.3-2.2,7.3H815.5z M822.1,67.7
				c-2,0-3.9,1.2-5.3,6.4h7.1c0.2-0.6,0.3-1.3,0.5-1.9C824.8,69.5,824.3,67.7,822.1,67.7z"/>
			<path class="st0" d="M864,94c0,0-2.1,0.5-6,0.5c-3.9,0-5.7-0.5-5.7-0.5l4.8-22.4c0.4-2-0.3-3.2-2.4-3.2c-1.1,0-2.3,0.4-3.5,1.2
				L845.9,94c0,0-2.2,0.5-5.9,0.5c-3.8,0-5.7-0.5-5.7-0.5l10-47.3c0,0,2.1-0.5,5.9-0.5c3.7,0,5.7,0.5,5.7,0.5l-3.4,15.8
				c2.7-2,5.8-3,9.1-3c6.5,0,8.7,4.6,7.3,11L864,94z"/>
			<path class="st0" d="M876.4,60.7c0,0,2.1-0.5,5.9-0.5c3.9,0,5.8,0.5,5.8,0.5l-4.8,22.5c-0.4,1.9,0.3,3.1,2.4,3.1
				c1.1,0,2.5-0.6,3.7-1.9l5.1-23.7c0,0,2.1-0.5,5.9-0.5c3.8,0,5.8,0.5,5.8,0.5L899.1,94c0,0-2.1,0.5-6,0.5c-3.7,0-5.2-0.5-5.2-0.5
				v-2.6c-2.7,2.6-5.7,3.7-9,3.7c-6.5,0-9-4.6-7.5-11.3L876.4,60.7z"/>
			<path class="st0" d="M934.5,94c0,0-2.1,0.5-6,0.5c-3.9,0-5.7-0.5-5.7-0.5l4.8-22.4c0.4-2-0.3-3.2-2.4-3.2c-1.1,0-2.3,0.5-3.5,1.3
				L916.4,94c0,0-2.2,0.5-5.9,0.5c-3.8,0-5.7-0.5-5.7-0.5l7.1-33.3c0,0,2.1-0.5,5.9-0.5c3.7,0,5.2,0.5,5.2,0.5v2.4
				c2.7-2,5.9-3.6,9.2-3.6c6.5,0,8.9,3.8,7.4,10.6L934.5,94z"/>
			<path class="st0" d="M951.8,94c0,0-2.3,0.5-6,0.5c-3.8,0-5.7-0.5-5.7-0.5l7.1-33.3c0,0,2.1-0.5,5.9-0.5c3.7,0,5.8,0.5,5.8,0.5
				L951.8,94z"/>
			<path class="st0" d="M987.2,94c0,0-2.1,0.5-6,0.5c-3.9,0-5.7-0.5-5.7-0.5l4.8-22.4c0.4-2-0.3-3.2-2.4-3.2c-1.1,0-2.3,0.5-3.5,1.3
				L969.1,94c0,0-2.2,0.5-5.9,0.5c-3.8,0-5.7-0.5-5.7-0.5l7.1-33.3c0,0,2.1-0.5,5.9-0.5c3.7,0,5.2,0.5,5.2,0.5v2.4
				c2.7-2,5.9-3.6,9.2-3.6c6.5,0,8.9,3.8,7.4,10.6L987.2,94z"/>
		</g>
		<g>
			<path class="st0" d="M830.7,101.5c2.6,0,3.8,0.8,3.8,0.8c-0.1,0.6-0.4,1-0.8,1.3c0,0-1.2-0.6-3.1-0.6c-2.9,0-5.3,1.6-6.5,7.2
				s0.5,7.1,3.4,7.1c2.1,0,3.6-0.6,3.6-0.6c0.3,0.3,0.4,0.8,0.3,1.3c0,0-1.6,0.8-4.4,0.8c-4.4,0-6-2.9-4.7-8.7
				C823.5,104.4,826.3,101.5,830.7,101.5z"/>
			<path class="st0" d="M843.2,101.5c4,0,5.9,3,4.6,9.1c-1.2,6.1-4.1,8.3-8.2,8.3s-5.8-2.9-4.6-9
				C836.3,103.8,839.2,101.5,843.2,101.5z M843,102.9c-2.8,0-5,1.8-6.2,7.2c-1.2,5.4,0.3,7.2,3.1,7.2c2.8,0,5-1.8,6.2-7.2
				C847.2,104.7,845.8,102.9,843,102.9z"/>
			<path class="st0" d="M855.4,106.5c-0.5-1.4-0.8-2.7-0.8-2.7h-0.1c0,0-0.2,1.4-0.7,3.7l-2.3,11c0,0-0.3,0.1-0.8,0.1
				c-0.5,0-0.8-0.1-0.8-0.1l3.6-16.6c0,0,0.4-0.1,1.1-0.1c0.7,0,1,0.1,1,0.1l4.3,11.8c0.5,1.4,0.9,2.8,0.9,2.8h0.1
				c0,0,0.2-1.6,0.6-3.6l2.4-11.1c0,0,0.3-0.1,0.9-0.1c0.6,0,0.8,0.1,0.8,0.1l-3.6,16.6c0,0-0.3,0.1-1,0.1c-0.7,0-1-0.1-1-0.1
				L855.4,106.5z"/>
			<path class="st0" d="M874.7,101.5c2.7,0,4.3,0.6,4.3,0.6c-0.1,0.5-0.4,1-0.8,1.4c0,0-1.6-0.5-3.6-0.5c-2.8,0-4.3,1.2-4.7,3.1
				c-0.5,2.1,1.3,2.7,3.5,3.4c2.1,0.7,4.3,1.9,3.6,5.1c-0.6,3-3,4.4-6.7,4.4c-3,0-4.7-0.9-4.7-0.9c0.1-0.5,0.4-1,0.8-1.4
				c0,0,2,0.7,4.2,0.7c2.7,0,4.3-1.1,4.8-3.1c0.4-2-1-2.8-2.8-3.3c-2.3-0.8-5-1.7-4.3-5.1C868.8,102.9,871,101.5,874.7,101.5z"/>
			<path class="st0" d="M892.7,101.7c0,0,0.1,0.3,0,0.8c-0.1,0.4-0.3,0.8-0.3,0.8h-4.6l-3.2,15.3c0,0-0.3,0.1-0.9,0.1
				c-0.6,0-0.8-0.1-0.8-0.1l3.2-15.3h-4.7c0,0-0.1-0.3,0-0.8c0.1-0.4,0.3-0.8,0.3-0.8H892.7z"/>
			<path class="st0" d="M901.6,101.7c3,0,4.4,2.2,3.8,5.1c-0.5,2.4-2.1,3.8-4.3,4.3l2.5,7.3c0,0-0.4,0.1-1,0.1s-0.8-0.1-0.8-0.1
				l-2.3-7.1h-3.9l-1.5,7.1c0,0-0.3,0.1-0.9,0.1c-0.6,0-0.9-0.1-0.9-0.1l3.6-16.8H901.6z M903.6,106.5c0.4-2.1-0.5-3.3-2.5-3.3h-3.9
				l-1.4,6.7h3.9C901.7,109.9,903.2,108.6,903.6,106.5z"/>
			<path class="st0" d="M919.3,113.1c-0.8,3.7-3.3,5.8-6.7,5.8c-3.5,0-5.5-2.1-4.7-5.8l2.4-11.3c0,0,0.3-0.1,0.9-0.1
				c0.6,0,0.8,0.1,0.8,0.1l-2.4,11.5c-0.5,2.5,0.6,4,3.2,4c2.5,0,4.3-1.5,4.8-4l2.4-11.5c0,0,0.3-0.1,0.9-0.1c0.6,0,0.8,0.1,0.8,0.1
				L919.3,113.1z"/>
			<path class="st0" d="M932,101.5c2.6,0,3.8,0.8,3.8,0.8c-0.1,0.6-0.4,1-0.8,1.3c0,0-1.2-0.6-3.1-0.6c-2.9,0-5.3,1.6-6.5,7.2
				s0.5,7.1,3.4,7.1c2.1,0,3.6-0.6,3.6-0.6c0.3,0.3,0.4,0.8,0.3,1.3c0,0-1.6,0.8-4.4,0.8c-4.4,0-6-2.9-4.7-8.7
				C924.8,104.4,927.7,101.5,932,101.5z"/>
			<path class="st0" d="M948.8,101.7c0,0,0.1,0.3,0,0.8c-0.1,0.4-0.3,0.8-0.3,0.8h-4.6l-3.2,15.3c0,0-0.3,0.1-0.9,0.1
				c-0.6,0-0.8-0.1-0.8-0.1l3.2-15.3h-4.7c0,0-0.1-0.3,0-0.8c0.1-0.4,0.3-0.8,0.3-0.8H948.8z"/>
			<path class="st0" d="M951.8,101.8c0,0,0.3-0.1,0.9-0.1s0.8,0.1,0.8,0.1l-3.6,16.6c0,0-0.3,0.1-0.9,0.1c-0.6,0-0.8-0.1-0.8-0.1
				L951.8,101.8z"/>
			<path class="st0" d="M963.8,101.5c4,0,5.9,3,4.6,9.1c-1.2,6.1-4.1,8.3-8.2,8.3s-5.8-2.9-4.6-9
				C956.9,103.8,959.8,101.5,963.8,101.5z M963.5,102.9c-2.8,0-5,1.8-6.2,7.2c-1.2,5.4,0.3,7.2,3.1,7.2c2.8,0,5-1.8,6.2-7.2
				C967.8,104.7,966.4,102.9,963.5,102.9z"/>
			<path class="st0" d="M976,106.5c-0.5-1.4-0.8-2.7-0.8-2.7h-0.1c0,0-0.2,1.4-0.7,3.7l-2.3,11c0,0-0.3,0.1-0.8,0.1
				c-0.5,0-0.8-0.1-0.8-0.1l3.6-16.6c0,0,0.4-0.1,1.1-0.1c0.7,0,1,0.1,1,0.1l4.3,11.8c0.5,1.4,0.9,2.8,0.9,2.8h0.1
				c0,0,0.2-1.6,0.6-3.6l2.4-11.1c0,0,0.3-0.1,0.9-0.1c0.6,0,0.8,0.1,0.8,0.1l-3.6,16.6c0,0-0.3,0.1-1,0.1c-0.7,0-1-0.1-1-0.1
				L976,106.5z"/>
		</g>
		<circle class="st0" cx="955" cy="50.7" r="5.9"/>
	</g>
	<g>
		<g>
			<path class="st0" d="M29.4,3.3c9,0,13.1,4.5,11.4,12.8c-1,4.5-3.7,7.7-7.3,9.7c3.6,1.8,5.4,5.3,4.3,10.6
				c-1.9,9.1-8.4,13.3-18,13.3H0L9.8,3.3H29.4z M19.4,41.1c3.4,0,5.5-1.5,6.4-5.3c0.8-3.9-0.7-5.3-4.1-5.3h-5.4L14,41.1H19.4z
				 M23.3,21.9c2.8,0,4.7-1.9,5.4-5c0.7-3.3-0.4-5-3.3-5h-5.2l-2.1,10H23.3z"/>
			<path class="st0" d="M53.6,35.8c-0.6,4.1,1.6,5.2,4.9,5.2c3.7,0,6.6-1.5,6.6-1.5c1.4,1.4,2.4,4.8,1.9,7.7c0,0-3.9,3.2-11.9,3.2
				c-10.9,0-15.3-6.5-12.6-18.8c2.6-12,9.2-16.8,18.8-16.8c8.2,0,13.2,4.5,11.2,13.8c-1,4.4-2.2,7.3-2.2,7.3H53.6z M60.1,22.8
				c-2,0-3.9,1.2-5.3,6.4h7.1c0.2-0.6,0.3-1.3,0.4-1.9C62.9,24.7,62.3,22.8,60.1,22.8z"/>
			<path class="st0" d="M101.9,49.2c0,0-2.1,0.5-6,0.5c-3.9,0-5.7-0.5-5.7-0.5l4.7-22.4c0.4-2-0.3-3.2-2.4-3.2
				c-1.1,0-2.2,0.4-3.5,1.2l-5.1,24.3c0,0-2.2,0.5-5.9,0.5c-3.8,0-5.7-0.5-5.7-0.5l10-47.3c0,0,2.1-0.5,5.9-0.5
				c3.7,0,5.7,0.5,5.7,0.5l-3.4,15.8c2.7-2,5.8-3,9-3c6.5,0,8.7,4.6,7.3,10.9L101.9,49.2z"/>
			<path class="st0" d="M114.2,15.9c0,0,2.1-0.5,5.9-0.5c3.8,0,5.8,0.5,5.8,0.5l-4.8,22.5c-0.4,1.9,0.3,3.1,2.4,3.1
				c1.1,0,2.5-0.6,3.7-1.9l5.1-23.7c0,0,2.1-0.5,5.8-0.5c3.8,0,5.8,0.5,5.8,0.5l-7.1,33.3c0,0-2.1,0.5-6,0.5c-3.7,0-5.1-0.5-5.1-0.5
				v-2.6c-2.7,2.6-5.6,3.7-8.9,3.7c-6.5,0-8.9-4.6-7.5-11.3L114.2,15.9z"/>
			<path class="st0" d="M172,49.2c0,0-2.1,0.5-6,0.5c-3.9,0-5.7-0.5-5.7-0.5l4.7-22.4c0.4-2-0.3-3.2-2.4-3.2c-1.1,0-2.3,0.5-3.5,1.3
				L154,49.2c0,0-2.2,0.5-5.9,0.5c-3.8,0-5.7-0.5-5.7-0.5l7.1-33.3c0,0,2.1-0.5,5.9-0.5c3.7,0,5.1,0.5,5.1,0.5v2.4
				c2.7-2,5.9-3.6,9.2-3.6c6.5,0,8.9,3.8,7.4,10.6L172,49.2z"/>
			<path class="st0" d="M189.2,49.2c0,0-2.2,0.5-6,0.5c-3.8,0-5.7-0.5-5.7-0.5l7.1-33.3c0,0,2.1-0.5,5.9-0.5c3.7,0,5.8,0.5,5.8,0.5
				L189.2,49.2z"/>
			<path class="st0" d="M224.6,49.2c0,0-2.1,0.5-6,0.5c-3.9,0-5.7-0.5-5.7-0.5l4.7-22.4c0.4-2-0.3-3.2-2.4-3.2
				c-1.1,0-2.3,0.5-3.5,1.3l-5.1,24.3c0,0-2.2,0.5-5.9,0.5c-3.8,0-5.7-0.5-5.7-0.5l7.1-33.3c0,0,2.1-0.5,5.9-0.5
				c3.7,0,5.1,0.5,5.1,0.5v2.4c2.7-2,5.9-3.6,9.2-3.6c6.5,0,8.9,3.8,7.4,10.6L224.6,49.2z"/>
		</g>
		<g>
			<path class="st0" d="M68.7,56.6c2.6,0,3.8,0.8,3.8,0.8c-0.1,0.6-0.4,1-0.8,1.3c0,0-1.2-0.6-3.1-0.6c-2.9,0-5.3,1.6-6.5,7.2
				c-1.2,5.6,0.5,7.1,3.4,7.1c2.1,0,3.6-0.6,3.6-0.6c0.3,0.3,0.4,0.8,0.3,1.3c0,0-1.6,0.8-4.4,0.8c-4.4,0-5.9-2.9-4.7-8.7
				C61.5,59.6,64.3,56.6,68.7,56.6z"/>
			<path class="st0" d="M81.1,56.6c4,0,5.9,3,4.6,9c-1.2,6.1-4.1,8.3-8.1,8.3c-4,0-5.8-2.9-4.6-9C74.3,58.9,77.2,56.6,81.1,56.6z
				 M80.9,58.1c-2.8,0-5,1.8-6.2,7.2c-1.1,5.4,0.3,7.2,3.1,7.2c2.8,0,5-1.8,6.1-7.2C85.1,59.9,83.7,58.1,80.9,58.1z"/>
			<path class="st0" d="M93.3,61.7c-0.5-1.4-0.8-2.7-0.8-2.7h-0.1c0,0-0.2,1.4-0.7,3.7l-2.3,11c0,0-0.3,0.1-0.8,0.1
				c-0.5,0-0.8-0.1-0.8-0.1L91.4,57c0,0,0.4-0.1,1.1-0.1c0.7,0,1,0.1,1,0.1l4.2,11.8c0.5,1.4,0.9,2.8,0.9,2.8h0.1
				c0,0,0.2-1.6,0.6-3.6l2.3-11c0,0,0.3-0.1,0.9-0.1c0.6,0,0.7,0.1,0.7,0.1l-3.5,16.6c0,0-0.3,0.1-1,0.1c-0.7,0-1-0.1-1-0.1
				L93.3,61.7z"/>
			<path class="st0" d="M112.5,56.6c2.7,0,4.3,0.6,4.3,0.6c-0.1,0.5-0.4,1-0.7,1.4c0,0-1.6-0.5-3.6-0.5c-2.7,0-4.3,1.2-4.7,3.1
				c-0.5,2.1,1.3,2.7,3.5,3.4c2.1,0.7,4.3,1.9,3.6,5.1c-0.6,3-3,4.4-6.7,4.4c-3,0-4.7-0.9-4.7-0.9c0.1-0.5,0.4-1,0.7-1.4
				c0,0,2,0.7,4.2,0.7c2.6,0,4.3-1.1,4.7-3.1c0.4-2-1-2.7-2.8-3.3c-2.3-0.8-5-1.7-4.3-5.1C106.7,58.1,108.9,56.6,112.5,56.6z"/>
			<path class="st0" d="M130.5,56.8c0,0,0.1,0.3,0,0.8c-0.1,0.4-0.3,0.8-0.3,0.8h-4.6l-3.2,15.3c0,0-0.3,0.1-0.9,0.1
				c-0.6,0-0.8-0.1-0.8-0.1l3.2-15.3h-4.7c0,0-0.1-0.3,0-0.8c0.1-0.4,0.3-0.8,0.3-0.8H130.5z"/>
			<path class="st0" d="M139.3,56.8c3,0,4.4,2.2,3.8,5.1c-0.5,2.4-2.1,3.8-4.3,4.3l2.5,7.3c0,0-0.4,0.1-1,0.1s-0.8-0.1-0.8-0.1
				l-2.3-7.1h-3.9l-1.5,7.1c0,0-0.3,0.1-0.9,0.1c-0.6,0-0.9-0.1-0.9-0.1l3.6-16.8H139.3z M141.3,61.7c0.4-2.1-0.5-3.3-2.5-3.3h-3.9
				l-1.4,6.7h3.9C139.4,65,140.9,63.8,141.3,61.7z"/>
			<path class="st0" d="M156.9,68.2c-0.8,3.7-3.3,5.8-6.7,5.8c-3.4,0-5.5-2.1-4.7-5.8l2.4-11.3c0,0,0.3-0.1,0.9-0.1
				c0.6,0,0.8,0.1,0.8,0.1l-2.4,11.5c-0.5,2.5,0.6,4,3.1,4c2.5,0,4.3-1.5,4.8-4l2.4-11.5c0,0,0.3-0.1,0.9-0.1c0.6,0,0.8,0.1,0.8,0.1
				L156.9,68.2z"/>
			<path class="st0" d="M169.6,56.6c2.6,0,3.8,0.8,3.8,0.8c-0.1,0.6-0.4,1-0.8,1.3c0,0-1.2-0.6-3.1-0.6c-2.9,0-5.3,1.6-6.5,7.2
				s0.5,7.1,3.4,7.1c2.1,0,3.6-0.6,3.6-0.6c0.3,0.3,0.4,0.8,0.3,1.3c0,0-1.6,0.8-4.4,0.8c-4.4,0-5.9-2.9-4.7-8.7
				C162.4,59.6,165.2,56.6,169.6,56.6z"/>
			<path class="st0" d="M186.2,56.8c0,0,0.1,0.3,0,0.8c-0.1,0.4-0.3,0.8-0.3,0.8h-4.6l-3.2,15.3c0,0-0.3,0.1-0.9,0.1
				c-0.6,0-0.8-0.1-0.8-0.1l3.2-15.3h-4.7c0,0-0.1-0.3,0-0.8c0.1-0.4,0.3-0.8,0.3-0.8H186.2z"/>
			<path class="st0" d="M189.3,57c0,0,0.3-0.1,0.9-0.1S191,57,191,57l-3.5,16.6c0,0-0.3,0.1-0.9,0.1c-0.6,0-0.8-0.1-0.8-0.1
				L189.3,57z"/>
			<path class="st0" d="M201.2,56.6c4,0,5.9,3,4.6,9c-1.2,6.1-4.1,8.3-8.1,8.3c-4,0-5.8-2.9-4.6-9C194.4,58.9,197.2,56.6,201.2,56.6
				z M201,58.1c-2.8,0-5,1.8-6.2,7.2c-1.1,5.4,0.3,7.2,3.1,7.2c2.8,0,5-1.8,6.1-7.2C205.2,59.9,203.8,58.1,201,58.1z"/>
			<path class="st0" d="M213.4,61.7c-0.5-1.4-0.8-2.7-0.8-2.7h-0.1c0,0-0.2,1.4-0.7,3.7l-2.3,11c0,0-0.3,0.1-0.8,0.1
				c-0.5,0-0.8-0.1-0.8-0.1l3.5-16.6c0,0,0.4-0.1,1.1-0.1c0.7,0,1,0.1,1,0.1l4.2,11.8c0.5,1.4,0.9,2.8,0.9,2.8h0.1
				c0,0,0.2-1.6,0.6-3.6l2.3-11c0,0,0.3-0.1,0.9-0.1c0.6,0,0.7,0.1,0.7,0.1l-3.5,16.6c0,0-0.3,0.1-1,0.1c-0.7,0-1-0.1-1-0.1
				L213.4,61.7z"/>
		</g>
		
			<ellipse transform="matrix(0.1535 -0.9881 0.9881 0.1535 156.1217 196.0195)" class="st0" cx="192.5" cy="6.9" rx="5.9" ry="4.8"/>
	</g>
</g>
</svg>
