<?xml version="1.0" encoding="utf-8"?>
<!-- Generator: Adobe Illustrator 20.1.0, SVG Export Plug-In . SVG Version: 6.00 Build 0)  -->
<svg version="1.1" id="Layer_1" xmlns="http://www.w3.org/2000/svg" xmlns:xlink="http://www.w3.org/1999/xlink" x="0px" y="0px"
	 viewBox="0 0 64 64" style="enable-background:new 0 0 64 64;" xml:space="preserve">
<path style="fill:#404040;" d="M45.3,31.9c-1.1,0.3-2.2,0.6-3.4,0.8c0,5.9-1.4,10.3-4,12.9c-2.7,2.6-5.7,2.4-5.8,2.4
	c0,0-0.1,0-0.1,0c0,0-0.1,0-0.1,0c-0.1,0-3.2,0.2-5.9-2.4c-2.6-2.5-4-6.9-4-12.9c-1.1-0.2-2.2-0.5-3.4-0.8c-1,0.2-1.6,1.1-1.4,2.1
	l0.7,4c0.1,0.8,0.8,1.4,1.6,1.5c0.8,3.6,2.2,6.4,4.4,8.4c3.1,2.9,6.6,3.2,7.8,3.2c0.1,0,0.2,0,0.3,0c0.8,0,4.7,0,8.1-3.2
	c2.1-2,3.6-4.8,4.4-8.4c0.8-0.1,1.5-0.7,1.6-1.5l0.7-4C46.9,33,46.3,32.1,45.3,31.9z M36.7,37.4c1.1,0,2-0.9,2-2c0-1.1-0.9-2-2-2
	c-1.1,0-2,0.9-2,2C34.7,36.5,35.6,37.4,36.7,37.4z M28.9,40.9c-0.3-0.1-0.7,0.1-0.8,0.4c-0.2,0.6-0.1,1.2,0.3,1.8
	c0.7,1,2.1,1.6,3.6,1.6h0c1.5,0,2.9-0.6,3.6-1.6c0.4-0.6,0.5-1.2,0.3-1.8c-0.1-0.3-0.5-0.5-0.8-0.4C33,41.5,30.9,41.5,28.9,40.9z
	 M27.2,33.3c-1.1,0-2,0.9-2,2c0,1.1,0.9,2,2,2c1.1,0,2-0.9,2-2C29.2,34.2,28.3,33.3,27.2,33.3z M44.4,25.8
	c-0.2-4.5-2.9-8.4-6.7-10.4v10h-2.3V14.9c0-1.1-0.9-1.9-1.9-1.9h-3c-1.1,0-1.9,0.9-1.9,1.9v10.5h-2.3V15.3c-3.9,2-6.6,5.9-6.9,10.5
	l-2.4,0.3v3c9.6,3.1,20,3.1,29.7,0v-3L44.4,25.8z"/>
</svg>
