<?xml version="1.0" encoding="utf-8"?>
<!-- Generator: Adobe Illustrator 20.1.0, SVG Export Plug-In . SVG Version: 6.00 Build 0)  -->
<svg version="1.1" id="Layer_1" xmlns="http://www.w3.org/2000/svg" xmlns:xlink="http://www.w3.org/1999/xlink" x="0px" y="0px"
	 viewBox="0 0 64 64" style="enable-background:new 0 0 64 64;" xml:space="preserve">
<path style="fill:#404040;" d="M45,18.6l-1-2.8c-0.1-0.3-0.5-0.7-0.8-0.8l-2.8-1c-0.3-0.1-0.8,0-1,0.2l-1.1,1.1
	c2.2,1.3,4.1,3.1,5.3,5.3l1.1-1.1C45,19.4,45.1,18.9,45,18.6z M50.6,43.7h-5.1c0,1.3-0.5,2.5-1.3,3.4h4.7v3h3.4v-4.7
	C52.3,44.5,51.6,43.7,50.6,43.7z M31.1,15.7H24c-6.7,0-12.2,5.5-12.2,12.2V35c0,6.7,5.5,12.2,12.2,12.2h15.6c2,0,3.7-1.6,3.7-3.7
	V27.9C43.3,21.2,37.8,15.7,31.1,15.7z M27.6,41.2c-5.4,0-9.8-4.4-9.8-9.8c0-5.4,4.4-9.8,9.8-9.8c5.4,0,9.8,4.4,9.8,9.8
	C37.4,36.8,33,41.2,27.6,41.2z M27.6,24.7c-3.7,0-6.8,3-6.8,6.8c0,3.7,3,6.8,6.8,6.8c3.7,0,6.8-3,6.8-6.8
	C34.4,27.7,31.3,24.7,27.6,24.7z"/>
</svg>
