<?xml version="1.0" encoding="utf-8"?>
<!-- Generator: Adobe Illustrator 20.1.0, SVG Export Plug-In . SVG Version: 6.00 Build 0)  -->
<svg version="1.1" id="Layer_1" xmlns="http://www.w3.org/2000/svg" xmlns:xlink="http://www.w3.org/1999/xlink" x="0px" y="0px"
	 viewBox="0 0 64 64" style="enable-background:new 0 0 64 64;" xml:space="preserve">
<path style="fill:#404040;" d="M24.9,18l8.1,6.7h5.7L24.9,13.4l-17,14l2.3,2.8L24.9,18z M32.9,27v3.6h23.5V27H32.9z M20.5,33.7h9V27
	h-9V33.7z M22.8,29.2h4.5v2.2h-4.5V29.2z M53.4,32.9h-3.6v13.1h-4.6V34.1H32.9v11.8h-3.5v-7.8h-8.9v7.8H16V28.4l-3.6,3v14.6H9.2v3.6
	h47.2v-3.6h-3V32.9z M27.1,45.9h-4.4v-5.5h4.4V45.9z M43,45.9h-7.8v-1.5H43V45.9z M43,42.2h-7.8v-1.8H43V42.2z M43,38.2h-7.8v-1.8
	H43V38.2z"/>
</svg>
