<?xml version="1.0" encoding="utf-8"?>
<!-- Generator: Adobe Illustrator 20.1.0, SVG Export Plug-In . SVG Version: 6.00 Build 0)  -->
<svg version="1.1" id="Layer_1" xmlns="http://www.w3.org/2000/svg" xmlns:xlink="http://www.w3.org/1999/xlink" x="0px" y="0px"
	 viewBox="0 0 64 64" style="enable-background:new 0 0 64 64;" xml:space="preserve">
<path style="fill:#404040;" d="M48,45.9V24.1h-3.6v21.8h-7.9v-7.8h-8.9v7.8h-7.9V24.1h-3.6v21.8H13v3.6h38v-3.6H48z M34.3,45.9h-4.4
	v-5.5h4.4V45.9z M50.3,17.2h-2.8v-2.8H16.6v2.8h-2.8v4.6h36.5V17.2z M37.7,24.9c-2.1,0-3.9,1.7-3.9,3.9v6.4h7.7l0-6.4
	C41.5,26.6,39.8,24.9,37.7,24.9z M37.7,27.1c0.9,0,1.6,0.7,1.6,1.5h-3.2C36.1,27.8,36.8,27.1,37.7,27.1z M36.1,32.9v-2h3.2l0,2H36.1
	z M26.5,24.9c-2.1,0-3.9,1.7-3.9,3.9v6.4h7.7l0-6.4C30.3,26.6,28.6,24.9,26.5,24.9z M26.5,27.1c0.9,0,1.6,0.7,1.6,1.5h-3.2
	C24.9,27.8,25.6,27.1,26.5,27.1z M24.9,32.9v-2h3.2v2H24.9z"/>
</svg>
