<?xml version="1.0" encoding="utf-8"?>
<!-- Generator: Adobe Illustrator 20.1.0, SVG Export Plug-In . SVG Version: 6.00 Build 0)  -->
<svg version="1.1" id="Layer_1" xmlns="http://www.w3.org/2000/svg" xmlns:xlink="http://www.w3.org/1999/xlink" x="0px" y="0px"
	 viewBox="0 0 64 64" style="enable-background:new 0 0 64 64;" xml:space="preserve">
<path style="fill:#404040;" d="M20.8,39.7l-6.4,4.8c-0.3,0.2-0.5,0.4-0.7,0.7c-1.1,1.5-0.8,3.7,0.7,4.8c1.5,1.1,3.7,0.8,4.8-0.7
	l4.8-6.4c-0.6-0.7-1.1-1.3-1.5-1.7C22.1,40.8,21.5,40.3,20.8,39.7z M32.1,13.6c0,0.7-0.1,1.5-0.2,2.2c-0.2,1-0.5,1.9-0.9,2.8
	l13.7,13.7c2.8-3.7,4.8-8.2,5.7-13.1c0.3-1.8,0.5-3.6,0.5-5.4L32.1,13.6z M42.4,37.5l0.8-0.8c0.7-0.7,0.7-2,0-2.7L29.6,20.4
	c-0.7-0.7-2-0.7-2.7,0l-3.8,3.8c-0.7,0.7-0.7,2,0,2.7l13.6,13.6c0.7,0.7,2,0.7,2.7,0l0.8-0.8l1.1,1.1l-3.9,3.9l-10.2-8.5
	c-0.6-0.5-1.6-0.5-2.1,0.1l-2.2,2.2c0.5,0.4,0.9,0.8,1.2,1.1c0.3,0.3,0.7,0.7,1.1,1.2l1.2-1.2l9.6,8c0.4,0.4,1,0.6,1.5,0.6h0
	c0.6,0,1.2-0.2,1.6-0.7l5.1-5.1c0.9-0.9,0.9-2.3,0-3.2L42.4,37.5z"/>
</svg>
